<?xml version="1.0" standalone="no"?>
<!DOCTYPE svg PUBLIC "-//W3C//DTD SVG 20010904//EN"
 "http://www.w3.org/TR/2001/REC-SVG-20010904/DTD/svg10.dtd">
<svg version="1.0" xmlns="http://www.w3.org/2000/svg"
 width="700.000000pt" height="700.000000pt" viewBox="0 0 700.000000 700.000000"
 preserveAspectRatio="xMidYMid meet">
<metadata>
Created by potrace 1.11, written by Peter Selinger 2001-2013
</metadata>
<g transform="translate(0.000000,700.000000) scale(0.100000,-0.100000)"
fill="#000000" stroke="none">
<path d="M1948 6995 c-2 -1 -75 -5 -163 -9 -225 -8 -419 -28 -620 -61 -66 -11
-406 -88 -489 -112 -110 -30 -231 -90 -314 -155 l-64 -50 -26 25 c-75 72 -182
60 -246 -26 -32 -43 -27 -142 9 -227 35 -80 35 -103 5 -210 -34 -117 -35 -323
-3 -451 65 -258 180 -544 291 -724 17 -27 39 -65 48 -82 9 -18 20 -33 25 -33
5 0 9 -5 9 -11 0 -26 170 -230 290 -347 61 -59 300 -252 313 -252 2 0 42 -23
88 -51 241 -146 635 -289 921 -334 80 -12 175 -28 188 -30 8 -2 47 -6 87 -10
40 -4 85 -8 100 -10 27 -3 166 -9 508 -20 88 -3 171 -8 185 -10 14 -2 61 -9
105 -15 331 -49 674 -186 985 -393 41 -28 87 -60 102 -71 14 -12 41 -32 59
-46 78 -58 119 -105 114 -130 -2 -14 -6 -45 -8 -70 -7 -59 -32 -158 -52 -197
-9 -19 -26 -34 -43 -38 -31 -7 -95 -48 -129 -81 -37 -37 -64 -93 -78 -163 -8
-35 -18 -67 -22 -70 -5 -3 -33 -24 -63 -47 -84 -62 -337 -204 -365 -204 -2 0
-28 -11 -57 -24 -180 -82 -633 -202 -948 -250 -19 -3 -46 -8 -60 -10 -14 -2
-47 -7 -73 -11 -27 -4 -56 -8 -66 -10 -9 -2 -46 -6 -82 -9 -36 -4 -76 -8 -90
-11 -22 -3 -71 -8 -218 -21 -103 -9 -175 -13 -343 -20 l-168 -6 -1 48 c-2 158
-4 173 -25 201 -12 15 -37 65 -56 109 -110 255 -353 570 -601 781 -126 108
-325 151 -491 108 -154 -40 -292 -157 -367 -310 -43 -88 -44 -92 -46 -200 -3
-178 27 -302 118 -490 63 -131 138 -238 245 -347 70 -71 238 -208 256 -208 17
0 6 -15 -80 -108 -266 -289 -473 -605 -526 -802 -53 -195 30 -436 194 -564
234 -183 546 -165 758 44 209 206 460 636 597 1023 15 42 28 77 29 77 1 0 47
-18 101 -41 230 -94 613 -196 839 -224 27 -3 67 -15 90 -27 30 -16 58 -21 106
-20 74 1 228 1 440 -1 80 0 181 2 225 6 150 13 166 14 350 43 71 11 190 38
330 74 568 147 1127 416 1555 749 490 381 826 855 969 1366 82 293 105 646 62
935 -7 47 -3 56 99 210 9 14 39 70 67 125 82 162 140 332 161 475 14 91 4 442
-13 470 -2 3 -6 23 -9 45 -18 116 -92 333 -154 450 -80 151 -259 366 -377 451
-22 16 -42 32 -45 35 -12 14 -126 82 -201 120 -137 69 -351 132 -514 153 -94
12 -150 15 -270 15 -66 0 -151 0 -189 1 -37 0 -89 -6 -115 -14 -25 -8 -64 -18
-86 -21 -22 -3 -53 -8 -70 -11 -56 -10 -230 -55 -328 -86 -108 -33 -96 -35
-227 25 -275 126 -685 260 -1016 332 -352 76 -532 93 -1021 93 -221 0 -403 -1
-405 -3z"/>
</g>
</svg>
