<?xml version="1.0" ?><svg enable-background="new 0 0 512 512" id="Layer_1" version="1.1" viewBox="0 0 512 512" xml:space="preserve" xmlns="http://www.w3.org/2000/svg" xmlns:xlink="http://www.w3.org/1999/xlink"><g><g><linearGradient gradientUnits="userSpaceOnUse" id="SVGID_1_" x1="-0.0000027" x2="512" y1="256" y2="256"><stop offset="0" style="stop-color:#00AEEE"/><stop offset="1" style="stop-color:#0095DA"/></linearGradient><circle cx="256" cy="256" fill="url(#SVGID_1_)" r="256"/><linearGradient gradientUnits="userSpaceOnUse" id="SVGID_2_" x1="42.6666641" x2="469.3333435" y1="256.0005188" y2="256.0005188"><stop offset="0" style="stop-color:#0095DA"/><stop offset="1" style="stop-color:#00AEEE"/></linearGradient><path d="M256,469.3338623c-117.6314697,0-213.3333435-95.7018738-213.3333435-213.3333435    c0-117.6309204,95.7018661-213.333313,213.3333435-213.333313c117.6357422,0,213.3333435,95.7024002,213.3333435,213.333313    C469.3333435,373.6319885,373.6357422,469.3338623,256,469.3338623z" fill="url(#SVGID_2_)"/></g><g><polygon opacity="0.3" points="280.802124,162.9087982 280.802124,244.3813324 290.5119934,244.3813324 290.5119934,162.9087982     313.0117188,186.0272064 319.9717407,179.2565308 285.657074,144.0005341 251.342926,179.2565308 258.302948,186.0272064   "/><path d="M356.3754578,314.4677429l24.6442871-105.1333466h-79.4602661h-1.3370667v44.7568054h-29.1301575    v-44.7568054h-1.6549072h-74.1541443l-10.6959991-45.6293335l-35.6063995-7.4954681l-2.0010681,9.5008087l29.5615997,6.2256012    l33.3119965,142.1029358l-16.0186615,40.5135803h30.4634552c-3.1274567,3.1173401-5.0863953,7.4645386-5.0863953,12.2949524    c0,9.4725342,7.4746704,17.1520081,16.694931,17.1520081c9.2202759,0,16.6944122-7.6794739,16.6944122-17.1520081    c0-4.8304138-1.9584045-9.1776123-5.0858765-12.2949524h49.2762756    c-3.1280212,3.1173401-5.0863953,7.4645386-5.0863953,12.2949524c0,9.4725342,7.4746704,17.1520081,16.6949158,17.1520081    c9.2202759,0,16.6938782-7.6794739,16.6938782-17.1520081c0-4.8304138-1.9578857-9.1776123-5.0858765-12.2949524h25.9194641    v-9.7103882H208.1152039l12.0128021-30.3743896H356.3754578z" opacity="0.3"/></g><g><polygon fill="#FFFFFF" points="272.802124,154.9087982 272.802124,236.3813324 282.5119934,236.3813324 282.5119934,154.9087982     305.0117188,178.0272064 311.9717407,171.2565308 277.657074,136.0005341 243.342926,171.2565308 250.3029327,178.0272064   "/><path d="M348.3754578,306.4677429l24.6442871-105.1333466h-79.4602661h-1.3370667v44.7568054h-29.1301575    v-44.7568054h-1.6549072h-74.1541443l-10.6959991-45.6293335l-35.6063995-7.4954681l-2.0010681,9.5008087l29.5615997,6.2256012    l33.3119965,142.1029358l-16.0186615,40.5135803h30.4634552c-3.1274567,3.1173401-5.0863953,7.4645386-5.0863953,12.2949524    c0,9.4725342,7.4746704,17.1520081,16.694931,17.1520081c9.2202759,0,16.694397-7.6794739,16.694397-17.1520081    c0-4.8304138-1.9583893-9.1776123-5.0858612-12.2949524h49.2762756    c-3.1280212,3.1173401-5.0863953,7.4645386-5.0863953,12.2949524c0,9.4725342,7.4746704,17.1520081,16.6949158,17.1520081    c9.2202759,0,16.6938782-7.6794739,16.6938782-17.1520081c0-4.8304138-1.9578857-9.1776123-5.0858765-12.2949524h25.9194641    v-9.7103882H200.1152039l12.0128021-30.3743896H348.3754578z" fill="#FFFFFF"/></g></g></svg>